<svg height="512" viewBox="0 0 64 64" width="512" xmlns="http://www.w3.org/2000/svg"><g id="Fill_Outline" data-name="Fill Outline"><g id="Stroke_copy" data-name="Stroke copy"><g><path d="m3 18.333 2-1.333a5.409 5.409 0 0 1 6 0 5.409 5.409 0 0 0 6 0 5.409 5.409 0 0 1 6 0 5.409 5.409 0 0 0 6 0 5.409 5.409 0 0 1 6 0 5.409 5.409 0 0 0 6 0 5.409 5.409 0 0 1 6 0 5.409 5.409 0 0 0 6 0 5.409 5.409 0 0 1 6 0l2 1.333v34.667h-58z" fill="#57b7eb"/><g><path d="m34.426 11.127a2 2 0 0 0 -1.2 2.563l1.427 3.92a2 2 0 0 0 1.034 1.129 2 2 0 0 1 .967 2.658 2 2 0 0 0 -.066 1.529l1.768 4.86a2 2 0 0 0 2.564 1.2l3.758-1.368a2 2 0 0 0 1.2-2.563l-1.768-4.865a2 2 0 0 0 -1.034-1.129 2 2 0 0 1 -.967-2.658 2 2 0 0 0 .066-1.529l-1.426-3.92a2 2 0 0 0 -2.564-1.2z" fill="#d0d8da"/><path d="m45.879 25.049-1.769-4.859a2 2 0 0 0 -1.034-1.129 2 2 0 0 1 -.967-2.658 2 2 0 0 0 .177-.7l-1.51.244a5.042 5.042 0 0 1 -5.545-3.253 1.991 1.991 0 0 1 .381-1.995l-1.186.432a2 2 0 0 0 -1.2 2.563l1.427 3.92a2 2 0 0 0 1.034 1.129 2 2 0 0 1 .967 2.658 2 2 0 0 0 -.066 1.529l1.768 4.86a2 2 0 0 0 2.564 1.2l3.758-1.368a2 2 0 0 0 1.201-2.573z" fill="#93999a"/><path d="m33.622 6.563h4v4h-4z" fill="#84d2f4" transform="matrix(.94 -.342 .342 .94 -.781 12.7)"/><path d="m37.306 8.443a2 2 0 0 1 -2.564-1.2l-.158-.434-1.526.555 1.368 3.759 3.759-1.368-.526-1.445z" fill="#57b7eb"/></g><path d="m3 22.333 2-1.333a5.409 5.409 0 0 1 6 0 5.409 5.409 0 0 0 6 0 5.409 5.409 0 0 1 6 0 5.409 5.409 0 0 0 6 0 5.409 5.409 0 0 1 6 0 5.409 5.409 0 0 0 6 0 5.409 5.409 0 0 1 6 0 5.409 5.409 0 0 0 6 0 5.409 5.409 0 0 1 6 0l2 1.333v34.667h-58z" fill="#4891d3"/><path d="m3 26.333 2-1.333a5.409 5.409 0 0 1 6 0 5.409 5.409 0 0 0 6 0 5.409 5.409 0 0 1 6 0 5.409 5.409 0 0 0 6 0 5.409 5.409 0 0 1 6 0 5.409 5.409 0 0 0 6 0 5.409 5.409 0 0 1 6 0 5.409 5.409 0 0 0 6 0 5.409 5.409 0 0 1 6 0l2 1.333v34.667h-58z" fill="#2d72bc"/><path d="m41 25a5.391 5.391 0 0 1 -3.191.894 1.973 1.973 0 0 1 -.15.5 2 2 0 0 0 -.066 1.529l1.768 4.86a2 2 0 0 0 2.564 1.2l3.758-1.368a2 2 0 0 0 1.2-2.564l-1.773-4.861a1.994 1.994 0 0 0 -.965-1.088 5.393 5.393 0 0 0 -3.145.898z" fill="#93999a"/><g><path d="m17.727 35.035-.196 3.129 1.749 2.667-3.863 1.035-1.743-2.639.19-3.156-3.864 1.035.069 4.122.777 2.898 2.967 3.346.846 7.02 2.898-.776 4.11-2.137 4.583-.192-.069-4.123-2.709-2.38-.328-5.088-1.742-2.639.189-3.157z" fill="#84d2f4"/><path d="m23.667 48.579-3.18 1.321a3.3 3.3 0 0 1 -4.517-2.5 3.3 3.3 0 0 0 -.784-1.64l-2.34-2.639-.777-2.9-.061-3.66-2.008.545.069 4.122.777 2.9 2.967 3.346.846 7.02 2.9-.776 4.11-2.137 4.583-.192-.052-2.916z" fill="#57b7eb"/></g><g><path d="m50.5 41.464a1 1 0 0 0 -1.366.366l-1.586 2.747a2 2 0 0 0 -.2 1.517 2 2 0 0 1 -1.415 2.45 2 2 0 0 0 -1.214.932l-1.586 2.746a1 1 0 0 0 .366 1.366l3.464 2a1 1 0 0 0 1.366-.366l1.586-2.746a2 2 0 0 0 .2-1.518 2 2 0 0 1 1.414-2.449 2.009 2.009 0 0 0 1.215-.932l1.586-2.747a1 1 0 0 0 -.366-1.366z" fill="#84d2f4"/><path d="m51.232 38.732h4v4h-4z" fill="#84d2f4" transform="matrix(.866 .5 -.5 .866 27.498 -21.159)"/><g fill="#57b7eb"><path d="m53.964 43.464-.75-.433-1.469 2.546a2.009 2.009 0 0 1 -1.215.932 2 2 0 0 0 -1.414 2.449 2 2 0 0 1 -.2 1.518l-1.586 2.746a1 1 0 0 1 -1.366.366l-2.714-1.567-.116.2a1 1 0 0 0 .366 1.366l3.464 2a1 1 0 0 0 1.366-.366l1.586-2.746a2 2 0 0 0 .2-1.518 2 2 0 0 1 1.414-2.449 2.009 2.009 0 0 0 1.215-.932l1.585-2.746a1 1 0 0 0 -.366-1.366z"/><path d="m54.348 39.067-.384.665a2 2 0 0 1 -2.732.732l-.116-.067-.616 1.067 3.464 2 2-3.464z"/></g></g><path d="m38 40-4 3 3 1 1 3 3-2-1-4z" fill="#c4f236"/><path d="m7.619 52.844-1.122 3.741 3.503 1.415 1-4z" fill="#c4f236"/><path d="m56 28-2 1-.051.154a4.162 4.162 0 0 1 -3.949 2.846l5 3 2-3v-4z" fill="#d0d8da"/><path d="m27 31v4h4l1-3-1-3z" fill="#d0d8da"/><path d="m28.257 30.372-1.257.628v4h4l.677-2.032a3.98 3.98 0 0 1 -3.42-2.596z" fill="#93999a"/><path d="m46.714 29.6c-.01 0-.019.011-.03.015a6 6 0 0 1 -7.691-3.586l-.079-.219a5.468 5.468 0 0 1 -1.105.086 1.973 1.973 0 0 1 -.15.5 2 2 0 0 0 -.066 1.529l1.768 4.86a2 2 0 0 0 2.564 1.2l3.758-1.368a2 2 0 0 0 1.2-2.564z" fill="#656b76"/><path d="m52.268 31.316a4.145 4.145 0 0 1 -2.268.684l5 3 2-3v-2a3.769 3.769 0 0 1 -4.732 1.316z" fill="#93999a"/><g fill="#a1d51c"><path d="m39.9 43.731a1.749 1.749 0 0 1 -2.628-.9 1.746 1.746 0 0 0 -1.105-1.105l-.325-.109-1.842 1.383 3 1 1 3 3-2-.429-1.714z"/><path d="m9.046 56.211a1.834 1.834 0 0 1 -1.069-2.227l.277-.923-.635-.217-1.119 3.741 3.5 1.415.453-1.812a1.818 1.818 0 0 1 -1.407.023z"/></g></g></g><g id="Stroke_Cut_copy_2" data-name="Stroke Cut copy 2"><g fill="#323232"><path d="m45.5 17.356a4.425 4.425 0 0 1 .944.476 6.4 6.4 0 0 0 7.11 0 4.4 4.4 0 0 1 4.89 0l2 1.333a1 1 0 1 0 1.11-1.664l-2-1.333a6.4 6.4 0 0 0 -7.11 0 4.4 4.4 0 0 1 -4.891 0 6.324 6.324 0 0 0 -1.379-.694 1 1 0 1 0 -.674 1.882z"/><path d="m59.555 20.168a6.4 6.4 0 0 0 -7.11 0 4.4 4.4 0 0 1 -4.89 0 6.405 6.405 0 0 0 -2.9-1.032 2.958 2.958 0 0 0 -1.161-.981 1 1 0 0 1 -.484-1.328 2.985 2.985 0 0 0 .1-2.3l-1.427-3.92a2.962 2.962 0 0 0 -2.843-1.964l-1.088-2.99a1 1 0 0 0 -1.281-.6l-3.754 1.376a1 1 0 0 0 -.6 1.281l1.089 2.99a2.963 2.963 0 0 0 -.916 3.332l.405 1.114a6.431 6.431 0 0 0 -4.252 1.022 4.4 4.4 0 0 1 -4.89 0 6.4 6.4 0 0 0 -7.11 0 4.4 4.4 0 0 1 -4.89 0 6.4 6.4 0 0 0 -7.11 0l-2 1.333a1 1 0 0 0 1.11 1.664l2-1.333a4.4 4.4 0 0 1 4.89 0 6.4 6.4 0 0 0 7.11 0 4.4 4.4 0 0 1 4.89 0 6.4 6.4 0 0 0 7.11 0 4.435 4.435 0 0 1 3.95-.466l.213.585a3.019 3.019 0 0 0 1.552 1.7.991.991 0 0 1 .516.564.783.783 0 0 1 .015.1c-.082-.047-.167-.086-.246-.139a6.4 6.4 0 0 0 -7.11 0 1 1 0 0 0 1.11 1.664 4.4 4.4 0 0 1 4.89 0 6.4 6.4 0 0 0 7.11 0 4.4 4.4 0 0 1 4.89 0 6.4 6.4 0 0 0 7.11 0 4.4 4.4 0 0 1 4.89 0l2 1.333a1 1 0 1 0 1.11-1.664zm-19.746-8.868.342.941-5.638 2.051-.342-.939a1 1 0 0 1 .6-1.283l3.757-1.37a1 1 0 0 1 1.281.6zm-3.589-4.019.684 1.88-.94.342-.94.343-.684-1.88zm4.225 12.887a4.389 4.389 0 0 1 -2.63.729 2.959 2.959 0 0 0 -1.7-3.064 1 1 0 0 1 -.517-.564l-.4-1.1 5.638-2.052.4 1.1a.991.991 0 0 1 -.033.765 2.963 2.963 0 0 0 .707 3.476 6.409 6.409 0 0 0 -1.465.71z"/><path d="m3 23.333a1 1 0 0 0 .554-.168l2-1.333a4.4 4.4 0 0 1 4.89 0 6.4 6.4 0 0 0 7.11 0 4.4 4.4 0 0 1 4.89 0 6.342 6.342 0 0 0 2.545 1 1 1 0 1 0 .315-1.974 4.4 4.4 0 0 1 -1.75-.686 6.4 6.4 0 0 0 -7.11 0 4.4 4.4 0 0 1 -4.89 0 6.4 6.4 0 0 0 -7.11 0l-2 1.333a1 1 0 0 0 .556 1.828z"/><path d="m59.555 24.168a6.4 6.4 0 0 0 -7.11 0 4.36 4.36 0 0 1 -1.806.694 1 1 0 0 0 .287 1.979 6.365 6.365 0 0 0 2.629-1.009 4.4 4.4 0 0 1 4.89 0l2 1.333a1 1 0 1 0 1.11-1.664z"/><path d="m10.445 25.832a6.4 6.4 0 0 0 7.11 0 4.4 4.4 0 0 1 4.89 0 6.4 6.4 0 0 0 7.11 0 4.4 4.4 0 0 1 4.89 0 6.4 6.4 0 0 0 7.11 0 4.389 4.389 0 0 1 2.276-.73.974.974 0 0 1 .34.429l.743 2.041-5.639 2.053-.156-.429a1 1 0 0 0 -1.879.684l1.182 3.247a3.006 3.006 0 0 0 2.823 1.973 2.974 2.974 0 0 0 1.022-.181l3.758-1.368a3 3 0 0 0 1.793-3.845l-1.419-3.9c.015.01.031.016.046.026a1 1 0 1 0 1.11-1.664 6.4 6.4 0 0 0 -3.332-1.063 6.39 6.39 0 0 0 -3.774 1.064 4.4 4.4 0 0 1 -4.89 0 6.4 6.4 0 0 0 -7.11 0 4.4 4.4 0 0 1 -4.89 0 6.4 6.4 0 0 0 -7.11 0 4.4 4.4 0 0 1 -4.89 0 6.4 6.4 0 0 0 -7.11 0l-2 1.333a1 1 0 0 0 1.11 1.664l2-1.333a4.4 4.4 0 0 1 4.886-.001zm35.461 5.324a1 1 0 0 1 -.564.518l-3.759 1.367a1 1 0 0 1 -1.282-.6l-.342-.939 5.641-2.051.342.941a.993.993 0 0 1 -.036.764z"/><path d="m26.208 50.388-4.582.192a1 1 0 0 0 -.419.111l-4.015 2.087-1.678.45-.63-5.228h2.116a1 1 0 0 0 0-2h-3a.979.979 0 0 0 -.133.027l-2.116-2.387-.684-2.551-.054-3.22 1.769-.473-.106 1.772a.991.991 0 0 0 .164.61l1.743 2.639a1 1 0 0 0 1.093.415l3.863-1.032a1 1 0 0 0 .577-1.515l-1.567-2.385.132-2.08 1.829-.49-.11 1.77a1 1 0 0 0 .163.61l1.6 2.418.312 4.823a1 1 0 0 0 .337.687l2.709 2.38a1 1 0 0 0 1.32-1.5l-2.4-2.107-.3-4.675a1.02 1.02 0 0 0 -.163-.486l-1.558-2.366.169-2.824a1 1 0 0 0 -1.257-1.026l-3.863 1.035a1 1 0 0 0 -.74.9l-.2 3.129a1 1 0 0 0 .162.611l.992 1.51-1.832.491-1.162-1.76.169-2.824a1 1 0 0 0 -1.258-1.026l-3.859 1.04a1 1 0 0 0 -.741.982l.069 4.123a.989.989 0 0 0 .035.242l.776 2.9a.983.983 0 0 0 .218.4l2.759 3.113.809 6.71a1 1 0 0 0 .993.88 1.035 1.035 0 0 0 .259-.034l2.9-.776a1.039 1.039 0 0 0 .2-.078l3.914-2.035 4.36-.183a1 1 0 0 0 .957-1.041.986.986 0 0 0 -1.041-.955z"/><path d="m55.191 43.339 1.639-2.839a1 1 0 0 0 -.366-1.366l-3.464-2a1 1 0 0 0 -1.366.366l-1.634 2.839a1.993 1.993 0 0 0 -1.727.991l-1.584 2.746a2.972 2.972 0 0 0 -.3 2.278 1 1 0 0 1 -.708 1.224 2.985 2.985 0 0 0 -1.821 1.4l-1.587 2.748a2 2 0 0 0 .727 2.729l3.465 2a2 2 0 0 0 2.731-.733l1.585-2.746a2.978 2.978 0 0 0 .3-2.278 1 1 0 0 1 .708-1.224 3.018 3.018 0 0 0 1.82-1.4l1.591-2.744a2 2 0 0 0 -.009-1.991zm-2.325-3.973 1.732 1-1 1.732-.866-.5-.866-.5zm-8.866 13.357 1-1.733 3.464 2-1 1.733zm5.449-3.783a2.969 2.969 0 0 0 -.324 2.122l-2.785-1.608a2.955 2.955 0 0 0 2-3.463l2.785 1.609a2.979 2.979 0 0 0 -1.676 1.34zm3.015-2.878-3.464-2 1-1.733 3.464 2z"/><path d="m40.97 40.758a1 1 0 0 0 -.523-.653l-2-1a1.006 1.006 0 0 0 -1.047.1l-4 3a1 1 0 0 0 .284 1.748l2.525.843.843 2.525a1 1 0 0 0 1.9-.632l-1-3a.99.99 0 0 0 -.632-.632l-1.189-.4 1.969-1.486 1.037.517.888 3.554a1 1 0 1 0 1.94-.484z"/><path d="m11.323 53.054-3.381-1.154a1 1 0 0 0 -1.281.66l-1.122 3.74a1 1 0 0 0 .583 1.214l3.5 1.415a1 1 0 0 0 1.345-.685l1-4a1 1 0 0 0 -.644-1.19zm-2.014 3.589-1.592-.643.561-1.873 1.529.522z"/><path d="m54.485 35.857a1 1 0 0 0 1.347-.3l2-3a1.006 1.006 0 0 0 .168-.557v-4a1 1 0 0 0 -1-1h-1a1 1 0 0 0 -.447.105l-2 1a1 1 0 0 0 -.5.577l-.053.156a3.16 3.16 0 0 1 -3 2.162 1 1 0 0 0 -.515 1.857zm.325-6.144 1.19-.6v2.587l-1.3 1.955-2.18-1.309a5.16 5.16 0 0 0 2.29-2.633z"/><path d="m31.383 28.076a1 1 0 0 0 -.83.029l-4 2a1 1 0 0 0 -.553.895v4a1 1 0 0 0 1 1h4a1 1 0 0 0 .948-.684l1-3a.977.977 0 0 0 0-.632l-1-3a1 1 0 0 0 -.565-.608zm-1.104 5.924h-2.279v-2.382l2.416-1.208.53 1.59z"/><path d="m34.846 52.37a1.762 1.762 0 0 1 -2.375.33l-.956-.674a1 1 0 0 0 -1.153 1.635l.956.674a3.765 3.765 0 0 0 5.08-.7 1 1 0 1 0 -1.552-1.26z"/><path d="m14.563 30.328a.679.679 0 0 1 -.884-.063 2.683 2.683 0 0 0 -3.377-.334 1 1 0 1 0 1.109 1.669.678.678 0 0 1 .854.084 2.689 2.689 0 0 0 3.5.249 1 1 0 0 0 -1.2-1.6z"/><path d="m57.141 53.207a1 1 0 0 0 -.889 1.1.681.681 0 0 1 -.508.728 2.686 2.686 0 0 0 -2.015 2.73 1 1 0 0 0 1 .95h.05a1 1 0 0 0 .95-1.049.677.677 0 0 1 .509-.69 2.691 2.691 0 0 0 2-2.879.994.994 0 0 0 -1.097-.89z"/><circle cx="45" cy="39" r="1"/><circle cx="7" cy="47" r="1"/><circle cx="28" cy="41" r="1"/></g></g></g></svg>