<?xml version="1.0" encoding="UTF-8"?>
<svg xmlns="http://www.w3.org/2000/svg" id="Fill_out_line" data-name="Fill out line" viewBox="0 0 512 512" width="512" height="512"><path d="M16,88c59.99905,0,59.99905,32,119.99811,32,59.99845,0,59.99845-32,119.99691-32,60.00125,0,60.00125,32,120.00249,32S435.99876,88,496,88V496H16Z" style="fill:#8acce7"/><path d="M488,272v80a88.01171,88.01171,0,0,1-80,87.64014V440a47.99972,47.99972,0,0,1-48,48H336l18.73-37.47021A47.99983,47.99983,0,0,1,397.66992,424,47.99941,47.99941,0,0,1,354.73,397.46973L336,360h24a47.9946,47.9946,0,0,1,47.99,47.2002A40.00413,40.00413,0,0,0,400,328H288a72,72,0,1,1,0-144H400A88.00123,88.00123,0,0,1,488,272Z" style="fill:#396795"/><path d="M488,272v32a48.004,48.004,0,0,0-48-48H296a48.08575,48.08575,0,0,1-45.27-32,46.50959,46.50959,0,0,1-2.06006-8,48.10186,48.10186,0,0,1,0-16,46.4146,46.4146,0,0,1,1.12012-5.03A71.625,71.625,0,0,1,288,184H400a88.00125,88.00125,0,0,1,70.66992,35.57007,86.56274,86.56274,0,0,1,5.92017,9.07007,87.43485,87.43485,0,0,1,11.3999,42.5C488,271.41992,488,271.71,488,272Z" style="fill:#d3e1e9"/><path d="M232,392v16a8,8,0,0,0,8,8h0a8,8,0,0,1,8,8v64H192V424a8,8,0,0,1,8-8h0a8,8,0,0,0,8-8V392Z" style="fill:#bde5f2"/><rect x="200" y="368" width="40" height="24" style="fill:#89b82c"/><rect x="192" y="440" width="56" height="24" style="fill:#89b82c"/><path d="M96,360l96-96-24-24-20,20a16.97055,16.97055,0,0,1-24,0l0,0a16.97055,16.97055,0,0,1,0-24l20-20-24-24L24,288Z" style="fill:#c4d4e0"/><path d="M232,104a40.01449,40.01449,0,0,1-40,40H120a40,40,0,0,1,0-80h72A40.00166,40.00166,0,0,1,232,104Z" style="fill:#eedc9a"/><circle cx="192" cy="104" r="40" style="fill:#eebe33"/><circle cx="264" cy="72" r="40" style="fill:#eedc9a"/><path d="M400,176H288a80,80,0,0,0,0,160H400a32.01441,32.01441,0,0,1,14.77734,60.3916A56.31082,56.31082,0,0,0,360,352H336a8.00089,8.00089,0,0,0-7.15625,11.57715l18.73145,37.46973A55.87972,55.87972,0,0,0,368.71191,424a55.8858,55.8858,0,0,0-21.13769,22.95215l-18.73047,37.4707A8.00089,8.00089,0,0,0,336,496h24a56.08507,56.08507,0,0,0,55.59668-49.2627A96.0317,96.0317,0,0,0,496,352V272A96.10874,96.10874,0,0,0,400,176Zm78.93091,87.80176A55.7968,55.7968,0,0,0,440,248H296a39.79137,39.79137,0,0,1-23.97192-8H448A32.05482,32.05482,0,0,1,478.93091,263.80176ZM448,224H259.3501a39.6524,39.6524,0,0,1-2.54517-8H448a31.82982,31.82982,0,0,1,10.86157,1.89062,80.53312,80.53312,0,0,1,7.74805,9.865A47.738,47.738,0,0,0,448,224Zm-48-32a79.511,79.511,0,0,1,34.8457,8H256.99487A63.62892,63.62892,0,0,1,288,192Zm80,160a80.01165,80.01165,0,0,1-72.71777,79.67285A8.00043,8.00043,0,0,0,400,439.64062V440a40.04584,40.04584,0,0,1-40,40H348.94238l12.94336-25.89355A39.78425,39.78425,0,0,1,397.66992,432a8,8,0,1,0,0-16,39.78086,39.78086,0,0,1-35.7832-22.10742L348.94336,368H360a40.16286,40.16286,0,0,1,39.99121,39.3291,7.99907,7.99907,0,0,0,9.58984,7.71094A48.004,48.004,0,0,0,400,320H288a63.9906,63.9906,0,0,1-47.73584-106.6167A56.07275,56.07275,0,0,0,296,264H440a40.04584,40.04584,0,0,1,40,40Z"/><polygon points="282.343 266.343 276 272.686 269.657 266.343 258.343 277.657 264.686 284 258.343 290.343 269.657 301.657 276 295.314 282.343 301.657 293.657 290.343 287.314 284 293.657 277.657 282.343 266.343"/><path d="M336,272H320v16h16a16.00861,16.00861,0,0,1,13.85254,8H320v16h40a8.00039,8.00039,0,0,0,8-8A32.03667,32.03667,0,0,0,336,272Z"/><path d="M240,408v-8a8.00039,8.00039,0,0,0,8-8V368a8.00039,8.00039,0,0,0-8-8H200a8.00039,8.00039,0,0,0-8,8v24a8.00039,8.00039,0,0,0,8,8v8a16.01833,16.01833,0,0,0-16,16v64a8.00039,8.00039,0,0,0,8,8h56a8.00039,8.00039,0,0,0,8-8V424A16.01833,16.01833,0,0,0,240,408Zm-32-32h24v8H208Zm8,32v-8h8v8a16.01833,16.01833,0,0,0,16,16v8H200v-8A16.01833,16.01833,0,0,0,216,408Zm24,40v8H200v-8Zm-40,32v-8h40v8Z"/><path d="M197.65723,258.34277l-24-24a8.003,8.003,0,0,0-11.31446,0l-20,20a8.97,8.97,0,0,1-12.68554-12.68554l20-20a8.00122,8.00122,0,0,0,0-11.31446l-24-24a8.003,8.003,0,0,0-11.31446,0l-96,96a8.00122,8.00122,0,0,0,0,11.31446l72,72a8.00181,8.00181,0,0,0,11.31446,0l96-96A8.00122,8.00122,0,0,0,197.65723,258.34277ZM96,348.68652,35.31348,288,120,203.31348,132.68652,216l-14.34375,14.34277a24.97109,24.97109,0,0,0,35.31446,35.31446L168,251.31348,180.68652,264Z"/><path d="M432.23438,96.94141C417.71387,104.68555,403.99805,112,375.99707,112c-28,0-41.71582-7.31445-56.23633-15.05859-3.74463-1.99756-7.57129-4.03467-11.67578-5.9729a47.99379,47.99379,0,1,0-91.21875-28.01246A47.71041,47.71041,0,0,0,192,56H120A48.073,48.073,0,0,0,73.17651,93.47607C59.34937,86.385,43.55127,80,16,80V96c28,0,41.71484,7.31543,56.23535,15.05957q.15417.0824.30908.16406A48.07353,48.07353,0,0,0,120,152h72a48.072,48.072,0,0,0,47.13086-38.93945,47.9574,47.9574,0,0,0,60.13452-8.54029c4.45923,2.00733,8.62817,4.22486,12.96607,6.53833C327.84863,119.3877,343.99707,128,375.99707,128c32.001,0,48.14941-8.6123,63.7666-16.94141C454.28418,103.31445,468,96,496,96V80C464,80,447.85156,88.6123,432.23438,96.94141ZM88,104a32.03667,32.03667,0,0,1,32-32h36.261a47.8835,47.8835,0,0,0-2.89722,60.44189,32.01271,32.01271,0,0,1-14.70459-41.23877l-14.66211-6.40624a47.97406,47.97406,0,0,0,5.3667,47.645,32.01271,32.01271,0,0,1-14.70459-41.23877L99.99707,84.79688a47.97406,47.97406,0,0,0,5.3667,47.645A32.02612,32.02612,0,0,1,88,104Zm104,32a32,32,0,1,1,32-32A32.03667,32.03667,0,0,1,192,136Zm72-32a31.90236,31.90236,0,0,1-25.83936-13.12573A47.75543,47.75543,0,0,0,232.69141,78.584,31.99627,31.99627,0,1,1,264,104Z"/></svg>
