<svg id="Capa_1" enable-background="new 0 0 499.013 499.013" height="512" viewBox="0 0 499.013 499.013" width="512" xmlns="http://www.w3.org/2000/svg"><g><g><path d="m84.13 278.544s68.75-53.699 139.414-51.175c64.48 2.303 65.404 44.667 65.404 44.667s-132.765-22.364-204.818 6.508" fill="#ffa585"/><g><path d="m84.139 288.541c-2.976 0-5.92-1.321-7.892-3.849-3.395-4.352-2.624-10.631 1.727-14.029 2.924-2.284 72.455-55.918 145.927-53.288 37.216 1.329 55.606 15.486 64.479 27.129 9.976 13.09 10.535 25.896 10.566 27.313l-19.996.437.004.123c-.064-1.351-2.191-33.101-55.767-35.014-66.102-2.391-132.247 48.552-132.907 49.066-1.826 1.423-3.992 2.112-6.141 2.112z" fill="#3c122c"/></g><g><path d="m457.058 326.742c32.588-23.548 49.671-54.614 38.572-72.368-12.089-19.335-53.014-15.551-91.41 8.455-22.078 13.803-38.924 37.255-46.176 47.327-7.251 10.072-6.842 23.796 0 33.172s24.098 33.524 46.176 47.328c38.395 24.005 79.321 27.79 91.41 8.454 11.1-17.754-5.983-48.82-38.572-72.368z" fill="#ffa585"/></g><g><g><g><path d="m21.876 334.667c-.718 0-1.446-.078-2.177-.24l-11.865-2.634c-5.392-1.197-8.792-6.538-7.595-11.93 1.196-5.392 6.538-8.793 11.93-7.595l11.865 2.634c5.392 1.197 8.792 6.538 7.595 11.93-1.035 4.662-5.168 7.835-9.753 7.835z" fill="#d07297"/></g><g><path d="m9.993 355.456c-4.585 0-8.718-3.173-9.753-7.835-1.197-5.392 2.203-10.733 7.595-11.93l11.865-2.634c5.392-1.196 10.732 2.203 11.93 7.595 1.197 5.392-2.203 10.733-7.595 11.93l-11.865 2.634c-.73.162-1.459.24-2.177.24z" fill="#d07297"/></g></g><path d="m404.738 326.742c0 63.554-124.294 115.075-229.317 115.075s-151.002-51.52-151.002-115.075 45.98-115.075 151.003-115.075 229.316 51.521 229.316 115.075z" fill="#ffa585"/><path d="m24.419 326.742c0 47.448 25.635 88.184 82.327 105.786 9.609-20.001 19.154-46.561 22.24-67.423l-10.186-40.207 11.458-37.501c-6.792-26.56-16.71-52.895-24.159-66.237-56.238 17.712-81.68 58.315-81.68 105.582z" fill="#ffc7b6"/><path d="m234.28 436.853c14.478-2.372 28.823-5.551 42.69-9.439 27.239-64.303 27.193-134.731-.146-201.384-12.806-3.585-26.018-6.564-39.365-8.863 30.488 73.297 30.207 157.45-3.179 219.686z" fill="#fff"/><path d="m311.356 415.91c10.471-4.124 20.415-8.666 29.639-13.577 17.3-44.798 19.219-104.769 1.559-150.341-8.998-4.875-18.703-9.396-28.934-13.515 21.747 52.283 21.295 132.79-2.264 177.433z" fill="#fff"/><path d="m175.421 211.667c-4.859 0-9.589.112-14.197.328 82.82 3.99 174.469 44.484 174.469 93.856 0 52.017-101.73 94.184-187.686 94.184-80.41 0-118.529-36.903-123.113-84.249-.314 3.607-.476 7.26-.476 10.956 0 63.555 45.98 115.076 151.003 115.076 19.267 0 39.182-1.734 58.86-4.958 8.381-1.373 16.479-6.25 24.705-8.145 5.983-1.378 12.146.344 17.985-1.293 11.832-3.318 23.314-7.152 34.226-11.442 5.869-2.308 10.747-6.981 16.251-9.543 4.372-2.035 9.444-1.913 13.548-4.098 37.978-20.22 63.741-46.661 63.741-75.595 0-28.537-25.059-54.647-62.181-74.757-4.535-2.457-8.544-2.173-13.415-4.444-4.794-2.235-10.445-7.028-15.52-9.071-11.675-4.7-24.033-8.875-36.797-12.448-5.386-1.508-11.801-1.079-17.311-2.367-7.59-1.774-14.322-5.165-22.055-6.496-20.707-3.568-41.732-5.494-62.037-5.494z" fill="#ef7c85"/><path d="m120.542 398.442c-61.682-7.535-91.589-41.033-95.64-82.592-.032.367-.067.732-.096 1.1-.038.483-.078.965-.111 1.45-.074 1.135-.132 2.274-.176 3.418-.014.372-.025.744-.037 1.117-.037 1.265-.064 2.533-.064 3.808v.001c0 47.448 25.635 88.184 82.327 105.786 4.9-10.2 9.778-22.104 13.797-34.088z" fill="#ef95b6"/><path d="m342.553 251.992c-8.998-4.875-18.703-9.396-28.934-13.515 4.801 11.541 8.516 24.459 11.143 38.062 6.982 9.226 10.931 19.077 10.931 29.312 0 7.634-2.206 15.053-6.216 22.16-.102 32.961-6.092 65.106-18.121 87.899 10.471-4.124 20.415-8.666 29.639-13.577 17.3-44.798 19.218-104.768 1.558-150.341z" fill="#ffbffc"/><g fill="#ffbffc"><path d="m295.158 360.98c-11.832 7.458-25.664 14.093-40.69 19.685-4.216 19.949-10.922 38.915-20.188 56.189 14.478-2.372 28.823-5.551 42.69-9.439 9.14-21.58 15.193-43.851 18.188-66.435z"/><path d="m276.823 226.03c-12.806-3.585-26.018-6.564-39.365-8.863 1.278 3.071 2.481 6.167 3.65 9.274 15.291 4.853 29.667 10.764 42.376 17.527-2.006-6.005-4.22-11.987-6.661-17.938z"/></g><g><path d="m118.119 409.784c-.977 0-1.968-.239-2.885-.743-2.904-1.596-3.964-5.244-2.368-8.148 12.045-21.913 11.976-45.722-.213-72.786-.805-1.788-.686-3.855.318-5.539 14.414-24.153 14.44-46.939.081-69.66-1.771-2.801-.935-6.507 1.866-8.277 2.801-1.772 6.507-.935 8.277 1.866 16.235 25.688 16.783 52.426 1.64 79.522 12.392 29.227 11.907 56.35-1.454 80.655-1.091 1.986-3.144 3.11-5.262 3.11z" fill="#be545e"/></g><ellipse cx="77.493" cy="312.668" fill="#d07297" rx="14.693" ry="14.693" transform="matrix(.16 -.987 .987 .16 -243.551 339.076)"/><path d="m230.087 292.607c-6.411-10.254-28.115-8.247-48.478 4.484-34.057 22.346-34.143 45.345 0 67.791 20.363 12.731 42.067 14.738 48.478 4.483 5.887-9.415 5.887-67.343 0-76.758z" fill="#ffc7b6"/><g><path d="m231.543 350.042h-32.555c-3.313 0-6-2.687-6-6 0-3.314 2.687-6 6-6h32.555c3.313 0 6 2.686 6 6 0 3.313-2.687 6-6 6z" fill="#d07297"/></g><g><path d="m230.359 322.814h-20.125c-3.313 0-6-2.686-6-6s2.687-6 6-6h20.125c3.314 0 6 2.686 6 6s-2.686 6-6 6z" fill="#d07297"/></g></g><g><path d="m154.013 257.19c-5.106 0-9.465-3.891-9.946-9.076-.511-5.498 3.531-10.37 9.029-10.882 1.128-.105 27.874-2.546 51.047-.384 5.499.513 9.541 5.386 9.028 10.885s-5.382 9.55-10.886 9.028c-21.285-1.985-47.08.36-47.337.385-.314.03-.626.044-.935.044z" fill="#fff"/></g></g><path d="m334.359 96.748 8.214 23.098c.352.989 1.048 1.773 1.927 2.169l20.521 9.246c2.899 1.306 2.899 5.926 0 7.232l-20.521 9.246c-.879.396-1.575 1.18-1.927 2.168l-8.214 23.098c-1.16 3.263-5.265 3.263-6.425 0l-8.214-23.098c-.352-.989-1.048-1.773-1.927-2.168l-20.521-9.246c-2.899-1.306-2.899-5.926 0-7.232l20.521-9.246c.879-.396 1.575-1.18 1.927-2.169l8.214-23.098c1.16-3.263 5.264-3.263 6.425 0z" fill="#ffc7b6"/><path d="m254.736 59.01 6.093 17.133c.261.734.777 1.315 1.429 1.609l15.222 6.858c2.151.969 2.151 4.395 0 5.364l-15.222 6.858c-.652.294-1.168.875-1.429 1.609l-6.093 17.133c-.861 2.42-3.905 2.42-4.766 0l-6.093-17.133c-.261-.734-.777-1.315-1.429-1.609l-15.222-6.858c-2.15-.969-2.15-4.395 0-5.364l15.222-6.858c.652-.294 1.168-.875 1.429-1.609l6.093-17.133c.861-2.42 3.905-2.42 4.766 0z" fill="#ffc7b6"/><g fill="#ffa585"><ellipse cx="58.971" cy="156.183" rx="17.937" ry="17.937" transform="matrix(.23 -.973 .973 .23 -106.583 177.693)"/><circle cx="179.187" cy="86.832" r="7.737"/></g></g></svg>