<svg id="Capa_1" enable-background="new 0 0 510 510" height="512" viewBox="0 0 510 510" width="512" xmlns="http://www.w3.org/2000/svg" xmlns:xlink="http://www.w3.org/1999/xlink"><linearGradient id="lg1"><stop offset="0" stop-color="#feb237"/><stop offset="1" stop-color="#fd6930"/></linearGradient><linearGradient id="SVGID_1_" gradientUnits="userSpaceOnUse" x1="232" x2="354.919" xlink:href="#lg1" y1="183.629" y2="183.629"/><linearGradient id="lg2"><stop offset="0" stop-color="#fff9df"/><stop offset=".593" stop-color="#ffe177"/><stop offset="1" stop-color="#feb237"/></linearGradient><linearGradient id="SVGID_2_" gradientUnits="userSpaceOnUse" x1="50.928" x2="616.111" xlink:href="#lg2" y1="312" y2="312"/><linearGradient id="SVGID_3_" gradientUnits="userSpaceOnUse" x1="74" x2="455.635" xlink:href="#lg2" y1="312" y2="312"/><linearGradient id="SVGID_4_" gradientUnits="userSpaceOnUse" x1="-7" x2="214.815" xlink:href="#lg2" y1="312" y2="312"/><linearGradient id="SVGID_5_" gradientUnits="userSpaceOnUse" x1="45.843" x2="409.631" xlink:href="#lg2" y1="239.165" y2="239.165"/><linearGradient id="SVGID_6_" gradientUnits="userSpaceOnUse" x1="45.84" x2="409.634" xlink:href="#lg2" y1="322.155" y2="322.155"/><linearGradient id="SVGID_7_" gradientUnits="userSpaceOnUse" x1="45.84" x2="409.634" xlink:href="#lg2" y1="374.743" y2="374.743"/><linearGradient id="SVGID_8_" gradientUnits="userSpaceOnUse" x1="299.615" x2="584.364" xlink:href="#lg1" y1="312" y2="312"/><linearGradient id="SVGID_9_" gradientUnits="userSpaceOnUse" x1="217.059" x2="359.012" xlink:href="#lg1" y1="312" y2="312"/><linearGradient id="SVGID_10_" gradientTransform="matrix(1 0 0 -1 0 -3826.242)" gradientUnits="userSpaceOnUse" x1="395.8" x2="456.585" y1="-4100.636" y2="-4100.636"><stop offset="0" stop-color="#537983"/><stop offset=".593" stop-color="#554e56"/><stop offset="1" stop-color="#433f43"/></linearGradient><linearGradient id="SVGID_11_" gradientUnits="userSpaceOnUse" x1="126" x2="393.978" xlink:href="#lg1" y1="312" y2="312"/><linearGradient id="SVGID_12_" gradientUnits="userSpaceOnUse" x1="-48" x2="176.776" y1="312" y2="312"><stop offset="0" stop-color="#fff9df"/><stop offset=".1795" stop-color="#fff2c0"/><stop offset=".593" stop-color="#ffe177"/><stop offset="1" stop-color="#feb237"/></linearGradient><linearGradient id="lg3"><stop offset="0" stop-color="#01bffa"/><stop offset=".2539" stop-color="#1f9efc"/><stop offset=".5724" stop-color="#407afd"/><stop offset=".8326" stop-color="#5464ff"/><stop offset="1" stop-color="#5b5cff"/></linearGradient><linearGradient id="SVGID_13_" gradientUnits="userSpaceOnUse" x1="365.612" x2="550.596" xlink:href="#lg3" y1="69.633" y2="69.633"/><linearGradient id="SVGID_14_" gradientUnits="userSpaceOnUse" x1="365.612" x2="550.596" xlink:href="#lg3" y1="98.851" y2="98.851"/><linearGradient id="SVGID_15_" gradientUnits="userSpaceOnUse" x1="365.612" x2="550.596" xlink:href="#lg3" y1="173.589" y2="173.589"/><g><g><path d="m385.361 176.118c0-13.387-9.221-25.088-22.285-28.013-15.653-3.505-31.799-5.342-48.306-5.342-35.853 0-80.77 27.565-101.094 57.633v24.101h171.685z" fill="url(#SVGID_1_)"/><path d="m314.77 167.805c-92.534 0-173.787 57.523-219.979 144.194 46.192 86.671 127.445 144.194 219.979 144.194 63.588 0 121.848-27.163 167.065-72.282 37.554-37.473 37.554-106.351 0-143.824-45.218-45.118-103.478-72.282-167.065-72.282z" fill="url(#SVGID_2_)"/><path d="m481.834 240.088c-45.217-45.119-103.477-72.282-167.065-72.282-6.751 0-13.44.315-20.061.916 55.787 5.041 106.665 31.013 147.106 71.366 37.554 37.473 37.554 106.351 0 143.824-40.441 40.353-91.319 66.325-147.106 71.366 6.622.601 13.31.916 20.061.916 63.588 0 121.848-27.163 167.065-72.282 37.555-37.473 37.555-106.352 0-143.824z" fill="url(#SVGID_3_)"/><path d="m113.652 388.288c11.787-11.813 20.731-25.399 26.755-39.924.049-.117.097-.234.146-.351 9.515-22.996 9.501-49.025-.004-72.026-.056-.135-.112-.27-.168-.405-6.024-14.499-14.942-28.085-26.729-39.872-22.274-22.274-50.918-34.29-80.068-36.048-18.939-1.142-34.657 14.479-33.526 33.418 1.711 28.636 13.312 56.792 34.815 78.906-21.507 22.119-33.109 50.281-34.816 78.933-1.128 18.94 14.587 34.56 33.526 33.418 29.151-1.758 57.795-13.774 80.069-36.049z" fill="url(#SVGID_4_)"/><g><path d="m378.954 230.106c-4.682-.313-8.57 3.427-8.501 8.057.064 4.284-1.887 8.418-5.639 10.486-9.547 5.263-19.251-1.56-19.251-10.607 0-.306-.017-.608-.051-.904-.372-3.245-.06-6.509.817-9.656.639-2.292.996-4.7 1.031-7.185.061-4.283-3.13-8.059-7.404-8.345-4.682-.313-8.57 3.427-8.501 8.057.064 4.346-1.964 8.511-5.792 10.57-9.404 5.057-18.91-1.56-19.096-10.427-.086-4.124-3.026-7.762-7.13-8.176-4.764-.481-8.781 3.247-8.781 7.913 0 3.213.54 6.302 1.531 9.183.981 2.85 1.328 5.851 1.288 8.865 0 .028-.001.057-.001.085-.012 4.673-2.35 9.125-6.581 11.109-9.232 4.331-18.308-2.339-18.308-11.088 0-.306-.017-.608-.051-.904-.372-3.245-.06-6.509.817-9.656.639-2.292.996-4.7 1.031-7.185.061-4.283-3.13-8.059-7.404-8.345-4.682-.313-8.57 3.427-8.501 8.057.065 4.346-1.964 8.511-5.792 10.569-9.404 5.057-18.91-1.56-19.096-10.427-.086-4.124-3.026-7.762-7.13-8.176-4.764-.481-8.781 3.247-8.781 7.913 0 15.634 12.719 28.354 28.354 28.354 4.173 0 8.134-.914 11.705-2.539 3.351 11.923 14.314 20.693 27.294 20.693 12.835 0 23.7-8.576 27.18-20.296 3.331 1.377 6.977 2.142 10.799 2.142 4.173 0 8.134-.913 11.705-2.539 3.351 11.923 14.314 20.693 27.294 20.693 15.469 0 28.084-12.452 28.349-27.858.073-4.317-3.097-8.144-7.404-8.433z" fill="url(#SVGID_5_)"/><path d="m343.896 313.078c-4.393 0-7.955 3.561-7.955 7.955 0 6.862-5.583 12.444-12.444 12.444-6.862 0-12.445-5.583-12.445-12.444 0-1.78-.592-3.418-1.58-4.744 2.154-3.995 3.379-8.562 3.379-13.41 0-4.393-3.561-7.955-7.955-7.955-4.393 0-7.955 3.561-7.955 7.955 0 6.862-5.583 12.444-12.444 12.444-6.862 0-12.445-5.583-12.445-12.444 0-4.393-3.561-7.955-7.954-7.955s-7.955 3.561-7.955 7.955c0 15.634 12.719 28.353 28.354 28.353 4.173 0 8.134-.914 11.705-2.539 3.351 11.923 14.314 20.693 27.294 20.693 15.634 0 28.353-12.719 28.353-28.353.001-4.394-3.56-7.955-7.953-7.955z" fill="url(#SVGID_6_)"/><path d="m262.429 356.589c-4.393 0-7.954 3.561-7.954 7.955 0 6.862-5.583 12.444-12.444 12.444-6.862 0-12.445-5.583-12.445-12.444 0-4.393-3.561-7.955-7.955-7.955-4.393 0-7.954 3.561-7.954 7.955 0 15.634 12.719 28.353 28.354 28.353 15.634 0 28.353-12.719 28.353-28.353-.001-4.393-3.562-7.955-7.955-7.955z" fill="url(#SVGID_7_)"/></g><path d="m397.032 183.629c-31.788 33.412-51.301 78.612-51.301 128.37s19.512 94.958 51.301 128.37c31.334-12.426 60.029-31.739 84.802-56.458 37.554-37.473 37.554-106.351 0-143.824-24.773-24.719-53.467-44.032-84.802-56.458z" fill="url(#SVGID_8_)"/><path d="m297.229 276.277c-10.677 22.856-10.677 48.589 0 71.445 2.262 4.843 7.554 7.996 13.419 7.996 24.771 0 48.045-10.613 62.607-28.549l6.107-7.523c3.702-4.56 3.705-10.735.006-15.297l-6.064-7.48c-14.558-17.958-37.848-28.588-62.638-28.588h-.018c-5.866 0-11.157 3.153-13.419 7.996z" fill="url(#SVGID_9_)"/><path d="m427.866 256.24c-15.635 0-28.354 12.719-28.354 28.353 0 4.393 3.561 7.954 7.955 7.954 4.393 0 7.954-3.561 7.954-7.954 0-6.862 5.583-12.444 12.445-12.444s12.444 5.583 12.444 12.444c0 4.393 3.561 7.954 7.955 7.954 4.393 0 7.954-3.561 7.954-7.954.001-15.633-12.719-28.353-28.353-28.353z" fill="url(#SVGID_10_)"/><path d="m385.361 426.86c3.677 4.688 7.57 9.198 11.671 13.509 31.334-12.426 60.029-31.739 84.802-56.458 37.554-37.473 37.554-106.351 0-143.824-24.773-24.719-53.468-44.032-84.802-56.458-4.101 4.311-7.994 8.822-11.671 13.509 20.402 11.422 39.363 25.895 56.453 42.949 37.554 37.473 37.554 106.351 0 143.824-17.09 17.054-36.051 31.527-56.453 42.949z" fill="url(#SVGID_11_)"/><path d="m140.55 275.988c-.056-.135-.112-.27-.168-.405-6.024-14.499-14.942-28.085-26.729-39.872-22.274-22.274-50.918-34.29-80.068-36.048-6.075-.366-11.814.999-16.777 3.639 20.82 5.314 40.528 16.113 56.825 32.41 9.522 9.522 17.17 20.22 22.934 31.623l-14.138-14.138c-3.905-3.905-10.237-3.905-14.142 0-3.905 3.905-3.905 10.237 0 14.142 0 0 8.504 8.498 17.092 17.079 6.491 6.485 1.898 17.582-7.279 17.582h-23.829c-5.326 0-9.977 4.019-10.321 9.334-.376 5.824 4.236 10.666 9.979 10.666h24.158c9.174 0 13.769 11.092 7.282 17.579l-17.082 17.082c-3.905 3.905-3.905 10.237 0 14.142 3.905 3.905 10.237 3.905 14.142 0l14.144-14.144c-5.769 11.405-13.428 22.095-22.94 31.629-16.297 16.297-36.005 27.096-56.825 32.41 4.962 2.639 10.701 4.005 16.776 3.639 29.15-1.758 57.794-13.774 80.069-36.049 11.787-11.813 20.731-25.399 26.755-39.924.049-.117.097-.234.146-.351 9.515-22.996 9.501-49.025-.004-72.025z" fill="url(#SVGID_12_)"/></g><g><circle cx="494.174" cy="69.632" fill="url(#SVGID_13_)" r="15.826"/><path d="m382.625 76.734c-12.215 12.215-12.215 32.019 0 44.234s32.019 12.215 44.234 0 12.215-32.019 0-44.234-32.019-12.215-44.234 0z" fill="url(#SVGID_14_)"/><path d="m450.788 158.047c-8.583 8.583-8.583 22.5 0 31.084 8.584 8.584 22.5 8.584 31.084 0s8.584-22.5 0-31.084c-8.584-8.583-22.501-8.583-31.084 0z" fill="url(#SVGID_15_)"/></g></g></svg>